# xmcd
#
# Track frame offsets: 
#        150
#        12025
#        28558
#        53772
#        65319
#        76505
#        90089
#        100968
#        118863
#        134256
#        146218
#        165274
#        176930
#        188779
#        203001
#        220097
#        232575
#        251714
#        265416
#        277333
#
# Disc length: 3848 seconds
#
# Revision: 1
# Processed by: cddbd v1.5.2PL0 Copyright (c) Steve Scherf et al.
# Submitted via: ExactAudioCopy v0.99pb1
#
DISCID=0d0f0614
DTITLE=The Yardbirds - Jeff Beck And The Yardbirds
DYEAR=2002
DGENRE=Rock
TTITLE0=Steeled Blues
TTITLE1=I Ain't Done Wrong
TTITLE2=My Girl Sloopy
TTITLE3=I'm Not Talking
TTITLE4=Heart Full Of Soul (single version)
TTITLE5=Still I'm Sad (single version)
TTITLE6=Evil Hearted You
TTITLE7=You're A Better Man Than I
TTITLE8=Train Kept A Rollin'
TTITLE9=I'm A Man
TTITLE10=New York City Blues (stereo mix)
TTITLE11=Shapes Of Things (single version/double tracked vocals)
TTITLE12=Pafff...Bum (unedited german version)
TTITLE13=What Do You Want (instrumental)
TTITLE14=Here 'Tis (stereo instrumental)
TTITLE15=Crimson Curtain (instrumental)
TTITLE16=Some One To Love (instrumental)
TTITLE17=Jeff's Blues (instrumental)
TTITLE18=Chris' Number (instrumental)
TTITLE19=Pounds And Stomps (instrumental)
EXTD=
EXTT0=
EXTT1=
EXTT2=
EXTT3=
EXTT4=
EXTT5=
EXTT6=
EXTT7=
EXTT8=
EXTT9=
EXTT10=
EXTT11=
EXTT12=
EXTT13=
EXTT14=
EXTT15=
EXTT16=
EXTT17=
EXTT18=
EXTT19=
PLAYORDER=
